<svg id="Layer_1" data-name="Layer 1" xmlns="http://www.w3.org/2000/svg" xmlns:xlink="http://www.w3.org/1999/xlink" viewBox="0 0 377.27 367.88"><defs><linearGradient id="linear-gradient" x1="26.55" y1="139.19" x2="192.88" y2="157.51" gradientUnits="userSpaceOnUse"><stop offset="0.01"/><stop offset="0.13" stop-opacity="0.69"/><stop offset="1" stop-opacity="0"/></linearGradient><linearGradient id="linear-gradient-2" x1="90.95" y1="167.8" x2="99.23" y2="226.35" xlink:href="#linear-gradient"/><linearGradient id="linear-gradient-3" x1="4607.68" y1="165.5" x2="4774.01" y2="183.83" gradientTransform="matrix(1, 0, 0, -1, -4367.19, 348.05)" xlink:href="#linear-gradient"/><linearGradient id="linear-gradient-4" x1="354.79" y1="170.48" x2="354.79" y2="234.35" xlink:href="#linear-gradient"/><linearGradient id="linear-gradient-5" x1="179.42" y1="173.13" x2="225.55" y2="171.35" xlink:href="#linear-gradient"/><linearGradient id="linear-gradient-6" x1="171.09" y1="170.19" x2="199.03" y2="179.73" xlink:href="#linear-gradient"/><linearGradient id="linear-gradient-7" x1="235.85" y1="144.55" x2="179.07" y2="135.09" xlink:href="#linear-gradient"/><linearGradient id="linear-gradient-8" x1="256.44" y1="161.86" x2="208.98" y2="174.28" xlink:href="#linear-gradient"/><linearGradient id="linear-gradient-9" x1="75.93" y1="152.48" x2="74.92" y2="168.01" xlink:href="#linear-gradient"/><linearGradient id="linear-gradient-10" x1="93.79" y1="176.26" x2="92.58" y2="193.34" xlink:href="#linear-gradient"/><linearGradient id="linear-gradient-11" x1="66.69" y1="146.06" x2="64.47" y2="180.22" xlink:href="#linear-gradient"/><linearGradient id="linear-gradient-12" x1="66.64" y1="149.65" x2="65" y2="175.02" xlink:href="#linear-gradient"/><linearGradient id="linear-gradient-13" x1="4727.54" y1="178.79" x2="4726.53" y2="194.33" gradientTransform="matrix(1, 0, 0, -1, -4376.34, 368.01)" xlink:href="#linear-gradient"/><linearGradient id="linear-gradient-14" x1="4722.5" y1="176.26" x2="4721.28" y2="193.34" gradientTransform="matrix(-1, 0, 0, 1, 5078.3, 0)" xlink:href="#linear-gradient"/><linearGradient id="linear-gradient-15" x1="4718.29" y1="172.38" x2="4716.08" y2="206.53" gradientTransform="matrix(-1, 0, 0, 1, 5055.4, -26.31)" xlink:href="#linear-gradient"/><linearGradient id="linear-gradient-16" x1="4718.25" y1="175.96" x2="4716.6" y2="201.34" gradientTransform="matrix(-1, 0, 0, 1, 5055.4, -26.31)" xlink:href="#linear-gradient"/><linearGradient id="linear-gradient-17" x1="204.3" y1="492.6" x2="206.97" y2="306.3" xlink:href="#linear-gradient"/></defs><title>Decide</title><path d="M131.73,71.52a126.82,126.82,0,0,0-56.19,69.34c-6.86,20.87-8.41,43.92-20.26,62.42-6.47,10.12-15.7,18.28-21.9,28.57-8.45,14-10.65,31-10.47,47.37.22,19.06,3.66,38.69,14.18,54.58,11.31,17.1,29.72,28.25,48.65,36.13,43.27,18,91,21.44,137.85,23.6,17,.79,34.2,1.43,51-1.51,30.28-5.3,57.24-21.8,83.38-38,12.08-7.48,24.55-15.33,32.4-27.17,8.09-12.19,10.38-27.44,9.71-42.05a117.69,117.69,0,0,0-26.67-69.06c-13.66-16.51-31.68-29-45-45.82-16.65-20.94-25-47.21-39.33-69.82C256.68,49,181.36,42.68,131.73,71.52Z" transform="translate(-22.9 -26.31)" fill="#68e1fd" opacity="0.18" style="isolation:isolate"/><rect x="41.53" width="126.86" height="290.1" fill="#68e1fd"/><rect x="28.67" y="281.23" width="147.27" height="11.53" fill="#68e1fd"/><rect x="52.77" y="12.42" width="102.32" height="270.58" fill="url(#linear-gradient)"/><path d="M98.83,192.58a3.89,3.89,0,0,1,0,1.18,2.56,2.56,0,0,1-1.32,1.33c-2.66,1.57-5.44,3.19-8.52,3.42a1.33,1.33,0,0,1-.79-.1c-.43-.24-.51-.81-.54-1.3L87.25,191a3.58,3.58,0,0,1,.16-1.69A3.38,3.38,0,0,1,88.64,188a38.93,38.93,0,0,1,8.12-4c1.45-.58,4.19,1.24,4.35,2.86C101.31,188.88,98.83,190.46,98.83,192.58Z" transform="translate(-22.9 -26.31)" fill="url(#linear-gradient-2)"/><rect x="253.39" y="26.31" width="126.86" height="290.1" transform="translate(610.75 316.41) rotate(-180)" fill="#68e1fd"/><rect x="245.85" y="307.54" width="147.27" height="11.53" transform="translate(616.07 600.3) rotate(-180)" fill="#68e1fd"/><rect x="266.7" y="38.73" width="102.32" height="270.58" transform="translate(612.82 321.74) rotate(-180)" fill="url(#linear-gradient-3)"/><path d="M350.22,190.63a2.88,2.88,0,0,1,.82.85,3.91,3.91,0,0,1,.17,1.37c.15,1.75,1.87,2.89,3.46,3.63a34.07,34.07,0,0,0,5.08,1.89,7,7,0,0,0,1.78-4.4,16.51,16.51,0,0,0-.54-4.79,3.38,3.38,0,0,0-.8-1.79,3.46,3.46,0,0,0-1.47-.7c-1.55-.45-3.1-.84-4.67-1.18-1.36-.29-3.29-1-4.67-.75C346.49,185.28,349,189.58,350.22,190.63Z" transform="translate(-22.9 -26.31)" fill="url(#linear-gradient-4)"/><path d="M223,338.3c.89,4.34,2,8.64,2.55,13a53.61,53.61,0,0,1,.34,10.21,3.46,3.46,0,0,0,.32,2.14c.6.9,1.85,1,2.93,1s2.26-.07,2.88-.91a3.29,3.29,0,0,0,.5-1.63c2.75-22.49-1.84-45.27-.7-67.9.1-2,0-4.34-1.62-5.39-2.63-1.66-6.76.88-8.32,3.07-1.37,1.9-3.56.12-3.7,2.33-.55,8.54,1.83,21.22,2.66,29.75A138.16,138.16,0,0,0,223,338.3Z" transform="translate(-22.9 -26.31)" fill="#f5bcba"/><path d="M193.14,313.32l-3.19,8.9c-1.32,3.69-4.65,7.86-6,11.56a3.11,3.11,0,0,0-.23,2.15c.34.87,3.06,3.73,4,3.77,2.36.11,27.56-42.08,28.24-44.51a3.67,3.67,0,0,0-.15-2.69,4,4,0,0,0-1.69-1.55c-4.25-2.35-10.51-.38-13.09,3.63C197.45,300.2,195.37,307.07,193.14,313.32Z" transform="translate(-22.9 -26.31)" fill="#f5bcba"/><path d="M227.59,360.56a3.59,3.59,0,0,0-2.18.06,2.69,2.69,0,0,0-.95,2.38,28.74,28.74,0,0,0,.59,6.61,1.91,1.91,0,0,0,.35.87,1.63,1.63,0,0,0,.54.39,8,8,0,0,0,6.31.16,16,16,0,0,0,5.35-3.62c1.28-1.23,2.55-2.88,2.14-4.61-.55-2.31-3.29-2.7-5.19-3.26C232.16,358.84,230.07,360.87,227.59,360.56Z" transform="translate(-22.9 -26.31)" fill="#473122"/><path d="M178.9,338.74a2.52,2.52,0,0,0-.57,1,2.19,2.19,0,0,0,.16,1.33,14.68,14.68,0,0,0,2.24,3.71,115.57,115.57,0,0,0,9.91,11.41,2.5,2.5,0,0,0,1.55.92c1.1,0,1.7-1.25,1.87-2.33a13,13,0,0,0-.62-6.4c-.73-2-1.95-3.81-2.62-5.84a11.65,11.65,0,0,1-.57-4c.05-1.77-.05-2.72-1.6-3.7-1.06-.66-2.12-2.15-3.26-2.57-1.42-.51-2.29,1.19-3,2.14Z" transform="translate(-22.9 -26.31)" fill="#473122"/><path d="M185.25,208.94c-2.25,5-4.53,10-5.15,15.46-1.32,11.59,5.06,22.48,7.91,33.79,2.29,9.1,2.3,18.67,4.73,27.74a16.76,16.76,0,0,0,2.22,5.3c3.25,4.66,9.69,5.63,15.37,5.53a73.66,73.66,0,0,0,17.29-2.37c2.95-.77,6.17-2,7.44-4.76a11.12,11.12,0,0,0,.64-4.84c-.27-17.73-.55-35.55-3.62-53-.78-4.48-1.75-8.93-2.27-13.45C229,211.22,229.26,204,228,197a5.63,5.63,0,0,0-1-2.6,5.77,5.77,0,0,0-3.48-1.59,73.76,73.76,0,0,0-25.92-.18c-3.77.63-4.94.59-6.75,4C188.76,200.56,187.11,204.85,185.25,208.94Z" transform="translate(-22.9 -26.31)" fill="#2e2e3f"/><path d="M166.38,213.08a56.26,56.26,0,0,0-2,11.85,23.48,23.48,0,0,0,2.34,11.69c.66,1.28,1.83,2.64,3.26,2.39s2-1.87,2.3-3.26a27.88,27.88,0,0,0,.52-5.08,8.9,8.9,0,0,1,.49-3.85c.38-.79,1-1.42,1.43-2.18,1-1.69.83-3.75.92-5.7.41-9.32,6.26-17.51,8.27-26.63a10.47,10.47,0,0,0,.24-4.31,4.42,4.42,0,0,0-2.55-3.29c-6.24-2.36-7.74,5.19-9.22,9.17A189.66,189.66,0,0,0,166.38,213.08Z" transform="translate(-22.9 -26.31)" fill="#f5bcba"/><path d="M234.88,206.66c3.1,6.57,7.24,12.59,11.11,18.74,2.09,3.32,4.13,6.76,5,10.58.44,1.89.68,4,2.11,5.34a1.46,1.46,0,0,0,.81.43c.75.07,1.23-.74,1.52-1.43,1.37-3.26,2.69-6.63,2.76-10.17s-1.39-7.3-4.45-9.07c.58-.53.45-1.47.24-2.23-2.65-9.6-11.18-17.4-11.33-27.35,0-1.66.2-3.32,0-5a6.08,6.08,0,0,0-2.09-4.35c-4.28-3.22-10.93.46-10.64,5.54A51.42,51.42,0,0,0,234.88,206.66Z" transform="translate(-22.9 -26.31)" fill="#f5bcba"/><path d="M225.24,113.18a45.93,45.93,0,0,1,.39,9.15c-.17,3-.75,6.12-2.92,8.12a20.82,20.82,0,0,0-2.4,2.08c-1.26,1.57-1.16,3.78-1.18,5.79s-.37,4.32-2.08,5.38-4.05.3-5.36-1.2a10.47,10.47,0,0,1-2.07-5.52,42.47,42.47,0,0,1,.88-15.72,24,24,0,0,1,4.24-9.54c1.48-1.85,4.33-4.58,6.81-4.91C224.33,106.45,224.94,111.14,225.24,113.18Z" transform="translate(-22.9 -26.31)" fill="#f5bcba"/><path d="M223.57,139.71a15,15,0,0,1,5.34,3.74A26.34,26.34,0,0,1,236,164.81c-1.29,9.89-8.19,18.63-8.26,28.6,0,1.16,1,8.62.33,9.54a4.27,4.27,0,0,1-1.38,1c-4.49,2.41-22.84,1-26,1.19-1.46.08-7.4-.64-8.74-1.24a8.48,8.48,0,0,1-3.12-2.87c-1.29-1.7,2.64-6.39,1.76-8.34-2.37-5.23-2.39-11.17-3.49-16.8s-3.32-11-5.38-16.35a7.71,7.71,0,0,1-.71-3.11,7.85,7.85,0,0,1,1.37-3.49c2.33-3.91,4.81-8,8.68-10.35s8.69-2.76,13.19-2.89a30.13,30.13,0,0,0,6.21-.54,17.28,17.28,0,0,1,4.75-.64A26.72,26.72,0,0,1,223.57,139.71Z" transform="translate(-22.9 -26.31)" fill="#68e1fd"/><path d="M219.13,138.32c2.05.77,8.25,3.56,9.78,5.13A26.34,26.34,0,0,1,236,164.81c-1.29,9.89-8.19,18.63-8.26,28.6,0,1.16,1,8.62.33,9.54a4.27,4.27,0,0,1-1.38,1c-4.49,2.41-22.84,1-26,1.19-1.46.08-7.4-.64-8.74-1.24a8.48,8.48,0,0,1-3.12-2.87c-1.29-1.7,2.64-6.39,1.76-8.34-2.37-5.23-2.39-11.17-3.49-16.8s-3.32-11-5.38-16.35a7.71,7.71,0,0,1-.71-3.11,7.85,7.85,0,0,1,1.37-3.49c2.33-3.91,4.81-8,8.68-10.35s8.69-2.76,13.19-2.89a30.13,30.13,0,0,0,6.21-.54,17.28,17.28,0,0,1,4.75-.64C218,138.64,216.54,137.35,219.13,138.32Z" transform="translate(-22.9 -26.31)" fill="url(#linear-gradient-5)"/><path d="M175,181.64a6.33,6.33,0,0,0,.09,3,6.41,6.41,0,0,0,2.68,2.83c2.23,1.54,4.73,3.16,7.42,2.84L190,174c.81-2.72,1.62-5.57,1.05-8.35-.92-4.52-7.69-9.88-11.18-4.76C176.29,166.16,175.81,175.49,175,181.64Z" transform="translate(-22.9 -26.31)" fill="#68e1fd"/><path d="M175,181.64a6.33,6.33,0,0,0,.09,3,6.41,6.41,0,0,0,2.68,2.83c2.23,1.54,4.73,3.16,7.42,2.84L190,174c.81-2.72,1.62-5.57,1.05-8.35-.92-4.52-7.69-9.88-11.18-4.76C176.29,166.16,175.81,175.49,175,181.64Z" transform="translate(-22.9 -26.31)" fill="url(#linear-gradient-6)"/><path d="M197,104.39c-1.07,2.76-1.17,5.78-1.55,8.71-.71,5.49-2.5,11-6,15.26a74.26,74.26,0,0,1-5.41,5.53c-4,4-7.49,8.59-9.19,14s-1.4,11.55,1.73,16.22c2.58,3.84,6.74,6.32,9.76,9.83,2,2.38,3.6,5.29,6.28,6.9a10.87,10.87,0,0,0,8.11,1,21.8,21.8,0,0,0,7.44-3.73,17,17,0,0,0,4.13-3.93,17.53,17.53,0,0,0,2.4-6.13c2.76-11.94,1.48-24.38,1.27-36.63-.07-4.54,0-9.27,2.14-13.29,1.26-2.43,3.18-4.45,4.58-6.8C230.82,97.58,202.74,89.49,197,104.39Z" transform="translate(-22.9 -26.31)" fill="#f6a75c"/><path d="M197,104.39c-1.07,2.76-1.17,5.78-1.55,8.71-.71,5.49-2.5,11-6,15.26a74.26,74.26,0,0,1-5.41,5.53c-4,4-7.49,8.59-9.19,14s-1.4,11.55,1.73,16.22c2.58,3.84,6.74,6.32,9.76,9.83,2,2.38,3.6,5.29,6.28,6.9a10.87,10.87,0,0,0,8.11,1,21.8,21.8,0,0,0,7.44-3.73,17,17,0,0,0,4.13-3.93,17.53,17.53,0,0,0,2.4-6.13c2.76-11.94,1.48-24.38,1.27-36.63-.07-4.54,0-9.27,2.14-13.29,1.26-2.43,3.18-4.45,4.58-6.8C230.82,97.58,202.74,89.49,197,104.39Z" transform="translate(-22.9 -26.31)" fill="url(#linear-gradient-7)"/><path d="M238.71,159c2.26,6.36,3.11,13.14,3.57,19.88.24,3.52.36,7.16-.8,10.49a3.41,3.41,0,0,1-1,1.67,3.46,3.46,0,0,1-1.64.56,22.28,22.28,0,0,1-3.82.24,7.56,7.56,0,0,1-4.06-1c-2.07-1.36-2.68-4.07-3.11-6.51l-4.19-23.38c-.68-3.79-2.6-16.95,4.48-16.59C233.21,144.61,237.3,155,238.71,159Z" transform="translate(-22.9 -26.31)" fill="#68e1fd"/><path d="M238.71,159c2.26,6.36,3.11,13.14,3.57,19.88.24,3.52.36,7.16-.8,10.49a3.41,3.41,0,0,1-1,1.67,3.46,3.46,0,0,1-1.64.56,22.28,22.28,0,0,1-3.82.24,7.56,7.56,0,0,1-4.06-1c-2.07-1.36-2.68-4.07-3.11-6.51l-4.19-23.38c-.68-3.79-2.6-16.95,4.48-16.59C233.21,144.61,237.3,155,238.71,159Z" transform="translate(-22.9 -26.31)" fill="url(#linear-gradient-8)"/><path d="M72.52,153.81h2.62a3.75,3.75,0,0,1,3.75,3.75v.26a3.75,3.75,0,0,1-3.75,3.75H72.52a0,0,0,0,1,0,0v-7.76A0,0,0,0,1,72.52,153.81Z" fill="url(#linear-gradient-9)"/><path d="M88.83,175.36l5,1.57a5.85,5.85,0,0,1,4,4.5,15,15,0,0,1-.08,6.63,4.85,4.85,0,0,1-3.4,3.23l-5.53,1.51Z" transform="translate(-22.9 -26.31)" fill="#68e1fd"/><path d="M88.83,175.36l5,1.57a5.85,5.85,0,0,1,4,4.5,15,15,0,0,1-.08,6.63,4.85,4.85,0,0,1-3.4,3.23l-5.53,1.51Z" transform="translate(-22.9 -26.31)" fill="url(#linear-gradient-10)"/><ellipse cx="65.93" cy="157.76" rx="4.58" ry="8.72" fill="#68e1fd"/><ellipse cx="65.93" cy="157.76" rx="4.58" ry="8.72" fill="url(#linear-gradient-11)"/><ellipse cx="66.08" cy="158.34" rx="3.41" ry="6.48" fill="url(#linear-gradient-12)"/><path d="M347.79,180.12h2.62a3.75,3.75,0,0,1,3.75,3.75v.26a3.75,3.75,0,0,1-3.75,3.75h-2.62a0,0,0,0,1,0,0v-7.76A0,0,0,0,1,347.79,180.12Z" transform="translate(679.06 341.7) rotate(-180)" fill="url(#linear-gradient-13)"/><path d="M360.77,175.36l-5,1.57a5.82,5.82,0,0,0-4,4.5,14.87,14.87,0,0,0,.08,6.63,4.82,4.82,0,0,0,3.39,3.23l5.54,1.51Z" transform="translate(-22.9 -26.31)" fill="#68e1fd"/><path d="M360.77,175.36l-5,1.57a5.82,5.82,0,0,0-4,4.5,14.87,14.87,0,0,0,.08,6.63,4.82,4.82,0,0,0,3.39,3.23l5.54,1.51Z" transform="translate(-22.9 -26.31)" fill="url(#linear-gradient-14)"/><ellipse cx="337.87" cy="157.76" rx="4.58" ry="8.72" fill="#68e1fd"/><ellipse cx="337.87" cy="157.76" rx="4.58" ry="8.72" fill="url(#linear-gradient-15)"/><ellipse cx="337.71" cy="158.34" rx="3.41" ry="6.48" fill="url(#linear-gradient-16)"/><path d="M184.85,341.46c-2.29.68-4.71,1.59-6,3.59-1,1.53-1.2,3.47-2.12,5.05-1.27,2.16-3.68,3.33-6,4.31a125.84,125.84,0,0,1-27.27,8c-3.69.64-7.75,1.31-10.17,4.17-3.3,3.9-1.71,10.27,2.06,13.73s9,4.73,14,5.74a324.82,324.82,0,0,0,83.56,5.63c16-1,33.09-3.47,45.23-14,1.11-1,2.24-2.13,2.36-3.61.17-2-1.62-3.63-3.23-4.87C250.24,348.41,220.43,331,184.85,341.46Z" transform="translate(-22.9 -26.31)" fill="url(#linear-gradient-17)"/></svg>